<mxfile host="Electron" agent="Mozilla/5.0 (Windows NT 10.0; Win64; x64) AppleWebKit/537.36 (KHTML, like Gecko) draw.io/27.0.2 Chrome/134.0.6998.205 Electron/35.3.0 Safari/537.36" version="27.0.2">
  <diagram name="Página-1" id="9aAilxFn8NyiJZ3YBJG7">
    <mxGraphModel dx="3024" dy="1360" grid="1" gridSize="10" guides="0" tooltips="1" connect="1" arrows="1" fold="1" page="1" pageScale="1" pageWidth="1700" pageHeight="1300" background="none" math="0" shadow="0">
      <root>
        <mxCell id="0" />
        <mxCell id="1" parent="0" />
        <mxCell id="HCMQUAeYLqOVQAFvdRaY-1" value="" style="rounded=0;whiteSpace=wrap;html=1;strokeWidth=1;glass=0;shadow=0;perimeterSpacing=0;fontFamily=Arial;dashed=1;dashPattern=8 8;fillColor=#fff2cc;strokeColor=#d6b656;fillStyle=hatch;" parent="1" vertex="1">
          <mxGeometry x="320" y="50" width="1060" height="1200" as="geometry" />
        </mxCell>
        <mxCell id="2Xc3Q9n6dPFMxbneTKWj-6" style="rounded=0;orthogonalLoop=1;jettySize=auto;html=1;entryX=0;entryY=0.5;entryDx=0;entryDy=0;jumpSize=6;elbow=vertical;strokeWidth=2;endArrow=open;startFill=0;endFill=0;" parent="1" source="N_mWsWtAlGoaoykS0_51-1" target="HCMQUAeYLqOVQAFvdRaY-2" edge="1">
          <mxGeometry relative="1" as="geometry" />
        </mxCell>
        <mxCell id="2Xc3Q9n6dPFMxbneTKWj-17" style="rounded=0;orthogonalLoop=1;jettySize=auto;html=1;entryX=0;entryY=0.5;entryDx=0;entryDy=0;strokeWidth=2;endArrow=open;startFill=0;endFill=0;" parent="1" source="N_mWsWtAlGoaoykS0_51-1" target="HCMQUAeYLqOVQAFvdRaY-5" edge="1">
          <mxGeometry relative="1" as="geometry" />
        </mxCell>
        <mxCell id="2Xc3Q9n6dPFMxbneTKWj-20" style="rounded=0;orthogonalLoop=1;jettySize=auto;html=1;strokeWidth=2;endArrow=open;endFill=0;entryX=0;entryY=0.5;entryDx=0;entryDy=0;" parent="1" source="N_mWsWtAlGoaoykS0_51-1" target="2Xc3Q9n6dPFMxbneTKWj-18" edge="1">
          <mxGeometry relative="1" as="geometry" />
        </mxCell>
        <mxCell id="51nvXK5Ymnc_PaSTjcSb-20" style="rounded=0;orthogonalLoop=1;jettySize=auto;html=1;entryX=0;entryY=0.5;entryDx=0;entryDy=0;endArrow=open;endFill=0;strokeWidth=2;" edge="1" parent="1" source="N_mWsWtAlGoaoykS0_51-1" target="51nvXK5Ymnc_PaSTjcSb-19">
          <mxGeometry relative="1" as="geometry" />
        </mxCell>
        <mxCell id="51nvXK5Ymnc_PaSTjcSb-28" style="rounded=0;orthogonalLoop=1;jettySize=auto;html=1;entryX=0;entryY=0.5;entryDx=0;entryDy=0;endArrow=open;endFill=0;strokeWidth=2;" edge="1" parent="1" source="N_mWsWtAlGoaoykS0_51-1" target="51nvXK5Ymnc_PaSTjcSb-27">
          <mxGeometry relative="1" as="geometry" />
        </mxCell>
        <mxCell id="51nvXK5Ymnc_PaSTjcSb-39" style="rounded=0;orthogonalLoop=1;jettySize=auto;html=1;entryX=0;entryY=0.5;entryDx=0;entryDy=0;endArrow=open;endFill=0;strokeWidth=2;" edge="1" parent="1" source="N_mWsWtAlGoaoykS0_51-1" target="51nvXK5Ymnc_PaSTjcSb-38">
          <mxGeometry relative="1" as="geometry" />
        </mxCell>
        <mxCell id="51nvXK5Ymnc_PaSTjcSb-46" style="rounded=0;orthogonalLoop=1;jettySize=auto;html=1;entryX=0;entryY=0.5;entryDx=0;entryDy=0;endArrow=open;endFill=0;strokeWidth=2;" edge="1" parent="1" source="N_mWsWtAlGoaoykS0_51-1" target="51nvXK5Ymnc_PaSTjcSb-45">
          <mxGeometry relative="1" as="geometry" />
        </mxCell>
        <mxCell id="51nvXK5Ymnc_PaSTjcSb-48" style="rounded=0;orthogonalLoop=1;jettySize=auto;html=1;entryX=0;entryY=0.5;entryDx=0;entryDy=0;endArrow=open;endFill=0;strokeWidth=2;" edge="1" parent="1" source="N_mWsWtAlGoaoykS0_51-1" target="51nvXK5Ymnc_PaSTjcSb-47">
          <mxGeometry relative="1" as="geometry" />
        </mxCell>
        <mxCell id="N_mWsWtAlGoaoykS0_51-1" value="Usuário&lt;br&gt;Comum" style="shape=umlActor;verticalLabelPosition=bottom;verticalAlign=top;html=1;outlineConnect=0;fontStyle=0;fontFamily=Arial;rounded=0;fillColor=#dae8fc;strokeColor=#6c8ebf;" parent="1" vertex="1">
          <mxGeometry x="20" y="520" width="30" height="60" as="geometry" />
        </mxCell>
        <mxCell id="2Xc3Q9n6dPFMxbneTKWj-14" style="rounded=0;orthogonalLoop=1;jettySize=auto;html=1;entryX=1;entryY=0.5;entryDx=0;entryDy=0;strokeWidth=2;endArrow=open;startFill=0;endFill=0;" parent="1" source="N_mWsWtAlGoaoykS0_51-3" target="2Xc3Q9n6dPFMxbneTKWj-11" edge="1">
          <mxGeometry relative="1" as="geometry" />
        </mxCell>
        <mxCell id="2Xc3Q9n6dPFMxbneTKWj-47" style="rounded=0;orthogonalLoop=1;jettySize=auto;html=1;entryX=1;entryY=0.5;entryDx=0;entryDy=0;endArrow=open;endFill=0;strokeWidth=2;" parent="1" source="N_mWsWtAlGoaoykS0_51-3" target="HCMQUAeYLqOVQAFvdRaY-7" edge="1">
          <mxGeometry relative="1" as="geometry" />
        </mxCell>
        <mxCell id="2Xc3Q9n6dPFMxbneTKWj-48" style="rounded=0;orthogonalLoop=1;jettySize=auto;html=1;entryX=1;entryY=0.5;entryDx=0;entryDy=0;endArrow=open;endFill=0;strokeWidth=2;" parent="1" source="N_mWsWtAlGoaoykS0_51-3" target="bOFGplvnujblraLGovJF-3" edge="1">
          <mxGeometry relative="1" as="geometry" />
        </mxCell>
        <mxCell id="2Xc3Q9n6dPFMxbneTKWj-49" style="rounded=0;orthogonalLoop=1;jettySize=auto;html=1;entryX=1;entryY=0.5;entryDx=0;entryDy=0;endArrow=open;endFill=0;strokeWidth=2;" parent="1" source="N_mWsWtAlGoaoykS0_51-3" target="1LnpKLCJJtD1nGOXLZn7-2" edge="1">
          <mxGeometry relative="1" as="geometry" />
        </mxCell>
        <mxCell id="2Xc3Q9n6dPFMxbneTKWj-52" style="rounded=0;orthogonalLoop=1;jettySize=auto;html=1;entryX=1;entryY=0.5;entryDx=0;entryDy=0;endArrow=open;endFill=0;strokeWidth=2;" parent="1" source="N_mWsWtAlGoaoykS0_51-3" target="2Xc3Q9n6dPFMxbneTKWj-51" edge="1">
          <mxGeometry relative="1" as="geometry" />
        </mxCell>
        <mxCell id="51nvXK5Ymnc_PaSTjcSb-9" style="rounded=0;orthogonalLoop=1;jettySize=auto;html=1;endArrow=open;endFill=0;strokeWidth=2;" edge="1" parent="1" source="N_mWsWtAlGoaoykS0_51-3" target="51nvXK5Ymnc_PaSTjcSb-8">
          <mxGeometry relative="1" as="geometry" />
        </mxCell>
        <mxCell id="N_mWsWtAlGoaoykS0_51-3" value="ADM" style="shape=umlActor;verticalLabelPosition=bottom;verticalAlign=top;html=1;outlineConnect=0;fontStyle=0;fontFamily=Arial;rounded=0;fillColor=#e1d5e7;strokeColor=#9673a6;" parent="1" vertex="1">
          <mxGeometry x="1650" y="520" width="30" height="60" as="geometry" />
        </mxCell>
        <mxCell id="2Xc3Q9n6dPFMxbneTKWj-16" value="&amp;lt;&amp;lt;extends&amp;gt;&amp;gt;" style="edgeStyle=orthogonalEdgeStyle;rounded=0;orthogonalLoop=1;jettySize=auto;html=1;strokeWidth=2;endArrow=open;endFill=0;" parent="1" source="HCMQUAeYLqOVQAFvdRaY-2" target="HCMQUAeYLqOVQAFvdRaY-21" edge="1">
          <mxGeometry relative="1" as="geometry" />
        </mxCell>
        <mxCell id="HCMQUAeYLqOVQAFvdRaY-2" value="Cadastrar-se" style="ellipse;whiteSpace=wrap;html=1;rounded=0;fontFamily=Arial;" parent="1" vertex="1">
          <mxGeometry x="350" y="110" width="120" height="80" as="geometry" />
        </mxCell>
        <mxCell id="HCMQUAeYLqOVQAFvdRaY-5" value="Cadastrar &lt;br&gt;veículo elétrico" style="ellipse;whiteSpace=wrap;html=1;rounded=0;fontFamily=Arial;" parent="1" vertex="1">
          <mxGeometry x="350" y="210" width="120" height="80" as="geometry" />
        </mxCell>
        <mxCell id="HCMQUAeYLqOVQAFvdRaY-7" value="Cadastrar&lt;br&gt;ponto de recarga" style="ellipse;whiteSpace=wrap;html=1;rounded=0;fontFamily=Arial;" parent="1" vertex="1">
          <mxGeometry x="1230" y="210" width="120" height="80" as="geometry" />
        </mxCell>
        <mxCell id="HCMQUAeYLqOVQAFvdRaY-21" value="Log-in" style="ellipse;whiteSpace=wrap;html=1;rounded=0;fontFamily=Arial;" parent="1" vertex="1">
          <mxGeometry x="550" y="110" width="120" height="80" as="geometry" />
        </mxCell>
        <mxCell id="51nvXK5Ymnc_PaSTjcSb-6" style="edgeStyle=orthogonalEdgeStyle;rounded=0;orthogonalLoop=1;jettySize=auto;html=1;strokeWidth=2;endArrow=open;endFill=0;" edge="1" parent="1" source="HCMQUAeYLqOVQAFvdRaY-45" target="51nvXK5Ymnc_PaSTjcSb-5">
          <mxGeometry relative="1" as="geometry" />
        </mxCell>
        <mxCell id="51nvXK5Ymnc_PaSTjcSb-7" value="&amp;lt;&amp;lt;extends&amp;gt;&amp;gt;" style="edgeLabel;html=1;align=center;verticalAlign=middle;resizable=0;points=[];" vertex="1" connectable="0" parent="51nvXK5Ymnc_PaSTjcSb-6">
          <mxGeometry x="-0.13" y="3" relative="1" as="geometry">
            <mxPoint as="offset" />
          </mxGeometry>
        </mxCell>
        <mxCell id="HCMQUAeYLqOVQAFvdRaY-45" value="Preencher &lt;br&gt;formulário do&lt;br&gt;ponto de &lt;br&gt;recarga" style="ellipse;whiteSpace=wrap;html=1;rounded=0;fontFamily=Arial;" parent="1" vertex="1">
          <mxGeometry x="1000" y="310" width="120" height="80" as="geometry" />
        </mxCell>
        <mxCell id="51nvXK5Ymnc_PaSTjcSb-1" style="rounded=0;orthogonalLoop=1;jettySize=auto;html=1;entryX=1;entryY=0.5;entryDx=0;entryDy=0;strokeWidth=2;endArrow=open;endFill=0;" edge="1" parent="1" source="bOFGplvnujblraLGovJF-3" target="HCMQUAeYLqOVQAFvdRaY-45">
          <mxGeometry relative="1" as="geometry" />
        </mxCell>
        <mxCell id="51nvXK5Ymnc_PaSTjcSb-4" value="&amp;lt;&amp;lt;include&amp;gt;&amp;gt;" style="edgeLabel;html=1;align=center;verticalAlign=middle;resizable=0;points=[];" vertex="1" connectable="0" parent="51nvXK5Ymnc_PaSTjcSb-1">
          <mxGeometry x="0.1513" y="1" relative="1" as="geometry">
            <mxPoint as="offset" />
          </mxGeometry>
        </mxCell>
        <mxCell id="bOFGplvnujblraLGovJF-3" value="Editar ponto de recarga" style="ellipse;whiteSpace=wrap;html=1;rounded=0;" parent="1" vertex="1">
          <mxGeometry x="1230" y="310" width="120" height="80" as="geometry" />
        </mxCell>
        <mxCell id="51nvXK5Ymnc_PaSTjcSb-3" value="&amp;lt;&amp;lt;include&amp;gt;&amp;gt;" style="rounded=0;orthogonalLoop=1;jettySize=auto;html=1;endArrow=open;endFill=0;strokeWidth=2;entryX=0.5;entryY=1;entryDx=0;entryDy=0;edgeStyle=orthogonalEdgeStyle;" edge="1" parent="1" source="1LnpKLCJJtD1nGOXLZn7-2" target="HCMQUAeYLqOVQAFvdRaY-45">
          <mxGeometry relative="1" as="geometry" />
        </mxCell>
        <mxCell id="1LnpKLCJJtD1nGOXLZn7-2" value="Buscar ponto de recarga" style="ellipse;whiteSpace=wrap;html=1;rounded=0;fontFamily=Arial;" parent="1" vertex="1">
          <mxGeometry x="1230" y="410" width="120" height="80" as="geometry" />
        </mxCell>
        <mxCell id="2Xc3Q9n6dPFMxbneTKWj-11" value="Log-in" style="ellipse;whiteSpace=wrap;html=1;rounded=0;fontFamily=Arial;" parent="1" vertex="1">
          <mxGeometry x="1230" y="110" width="120" height="80" as="geometry" />
        </mxCell>
        <mxCell id="2Xc3Q9n6dPFMxbneTKWj-18" value="Cadastrar &lt;br&gt;local" style="ellipse;whiteSpace=wrap;html=1;rounded=0;fontFamily=Arial;" parent="1" vertex="1">
          <mxGeometry x="350" y="310" width="120" height="80" as="geometry" />
        </mxCell>
        <mxCell id="2Xc3Q9n6dPFMxbneTKWj-51" value="Sair" style="ellipse;whiteSpace=wrap;html=1;rounded=0;fontFamily=Arial;" parent="1" vertex="1">
          <mxGeometry x="1230" y="610" width="120" height="80" as="geometry" />
        </mxCell>
        <mxCell id="51nvXK5Ymnc_PaSTjcSb-5" value="Salvar ou cancelar" style="ellipse;whiteSpace=wrap;html=1;rounded=0;fontFamily=Arial;" vertex="1" parent="1">
          <mxGeometry x="1000" y="210" width="120" height="80" as="geometry" />
        </mxCell>
        <mxCell id="51nvXK5Ymnc_PaSTjcSb-11" value="&amp;lt;&amp;lt;include&amp;gt;&amp;gt;" style="rounded=0;orthogonalLoop=1;jettySize=auto;html=1;endArrow=open;endFill=0;strokeWidth=2;" edge="1" parent="1" source="51nvXK5Ymnc_PaSTjcSb-8" target="51nvXK5Ymnc_PaSTjcSb-10">
          <mxGeometry relative="1" as="geometry" />
        </mxCell>
        <mxCell id="51nvXK5Ymnc_PaSTjcSb-8" value="Editar perifl" style="ellipse;whiteSpace=wrap;html=1;rounded=0;fontFamily=Arial;" vertex="1" parent="1">
          <mxGeometry x="1230" y="510" width="120" height="80" as="geometry" />
        </mxCell>
        <mxCell id="51nvXK5Ymnc_PaSTjcSb-13" style="rounded=0;orthogonalLoop=1;jettySize=auto;html=1;endArrow=open;endFill=0;strokeWidth=2;" edge="1" parent="1" source="51nvXK5Ymnc_PaSTjcSb-10" target="51nvXK5Ymnc_PaSTjcSb-12">
          <mxGeometry relative="1" as="geometry" />
        </mxCell>
        <mxCell id="51nvXK5Ymnc_PaSTjcSb-14" value="&amp;lt;&amp;lt;extends&amp;gt;&amp;gt;" style="edgeLabel;html=1;align=center;verticalAlign=middle;resizable=0;points=[];" vertex="1" connectable="0" parent="51nvXK5Ymnc_PaSTjcSb-13">
          <mxGeometry x="-0.3167" relative="1" as="geometry">
            <mxPoint as="offset" />
          </mxGeometry>
        </mxCell>
        <mxCell id="51nvXK5Ymnc_PaSTjcSb-10" value="Preencher &lt;br&gt;dados a serem alterados" style="ellipse;whiteSpace=wrap;html=1;rounded=0;fontFamily=Arial;" vertex="1" parent="1">
          <mxGeometry x="1000" y="510" width="120" height="80" as="geometry" />
        </mxCell>
        <mxCell id="51nvXK5Ymnc_PaSTjcSb-12" value="Salvar ou cancelar" style="ellipse;whiteSpace=wrap;html=1;rounded=0;fontFamily=Arial;" vertex="1" parent="1">
          <mxGeometry x="1000" y="610" width="120" height="80" as="geometry" />
        </mxCell>
        <mxCell id="51nvXK5Ymnc_PaSTjcSb-22" style="rounded=0;orthogonalLoop=1;jettySize=auto;html=1;endArrow=open;endFill=0;strokeWidth=2;" edge="1" parent="1" source="51nvXK5Ymnc_PaSTjcSb-19" target="51nvXK5Ymnc_PaSTjcSb-21">
          <mxGeometry relative="1" as="geometry" />
        </mxCell>
        <mxCell id="51nvXK5Ymnc_PaSTjcSb-25" value="&amp;lt;&amp;lt;include&amp;gt;&amp;gt;" style="edgeLabel;html=1;align=center;verticalAlign=middle;resizable=0;points=[];" vertex="1" connectable="0" parent="51nvXK5Ymnc_PaSTjcSb-22">
          <mxGeometry x="-0.09" y="1" relative="1" as="geometry">
            <mxPoint as="offset" />
          </mxGeometry>
        </mxCell>
        <mxCell id="51nvXK5Ymnc_PaSTjcSb-19" value="Editar veículo" style="ellipse;whiteSpace=wrap;html=1;rounded=0;fontFamily=Arial;" vertex="1" parent="1">
          <mxGeometry x="350" y="410" width="120" height="80" as="geometry" />
        </mxCell>
        <mxCell id="51nvXK5Ymnc_PaSTjcSb-24" style="rounded=0;orthogonalLoop=1;jettySize=auto;html=1;endArrow=open;endFill=0;strokeWidth=2;" edge="1" parent="1" source="51nvXK5Ymnc_PaSTjcSb-21" target="51nvXK5Ymnc_PaSTjcSb-23">
          <mxGeometry relative="1" as="geometry" />
        </mxCell>
        <mxCell id="51nvXK5Ymnc_PaSTjcSb-26" value="&amp;lt;&amp;lt;extends&amp;gt;&amp;gt;" style="edgeLabel;html=1;align=center;verticalAlign=middle;resizable=0;points=[];" vertex="1" connectable="0" parent="51nvXK5Ymnc_PaSTjcSb-24">
          <mxGeometry x="0.0567" y="4" relative="1" as="geometry">
            <mxPoint as="offset" />
          </mxGeometry>
        </mxCell>
        <mxCell id="51nvXK5Ymnc_PaSTjcSb-21" value="Preencher &lt;br&gt;formulário &lt;br&gt;do veículo" style="ellipse;whiteSpace=wrap;html=1;rounded=0;fontFamily=Arial;" vertex="1" parent="1">
          <mxGeometry x="550" y="410" width="120" height="80" as="geometry" />
        </mxCell>
        <mxCell id="51nvXK5Ymnc_PaSTjcSb-23" value="Salvar ou cancelar" style="ellipse;whiteSpace=wrap;html=1;rounded=0;fontFamily=Arial;" vertex="1" parent="1">
          <mxGeometry x="740" y="410" width="120" height="80" as="geometry" />
        </mxCell>
        <mxCell id="51nvXK5Ymnc_PaSTjcSb-30" style="rounded=0;orthogonalLoop=1;jettySize=auto;html=1;endArrow=open;endFill=0;strokeWidth=2;" edge="1" parent="1" source="51nvXK5Ymnc_PaSTjcSb-27" target="51nvXK5Ymnc_PaSTjcSb-29">
          <mxGeometry relative="1" as="geometry" />
        </mxCell>
        <mxCell id="51nvXK5Ymnc_PaSTjcSb-34" value="&amp;lt;&amp;lt;include&amp;gt;&amp;gt;" style="edgeLabel;html=1;align=center;verticalAlign=middle;resizable=0;points=[];" vertex="1" connectable="0" parent="51nvXK5Ymnc_PaSTjcSb-30">
          <mxGeometry x="0.01" y="1" relative="1" as="geometry">
            <mxPoint as="offset" />
          </mxGeometry>
        </mxCell>
        <mxCell id="51nvXK5Ymnc_PaSTjcSb-27" value="Editar local" style="ellipse;whiteSpace=wrap;html=1;rounded=0;fontFamily=Arial;" vertex="1" parent="1">
          <mxGeometry x="350" y="510" width="120" height="80" as="geometry" />
        </mxCell>
        <mxCell id="51nvXK5Ymnc_PaSTjcSb-37" value="&amp;lt;&amp;lt;extends&amp;gt;&amp;gt;" style="rounded=0;orthogonalLoop=1;jettySize=auto;html=1;entryX=0;entryY=0.5;entryDx=0;entryDy=0;endArrow=open;endFill=0;strokeWidth=2;" edge="1" parent="1" source="51nvXK5Ymnc_PaSTjcSb-29" target="51nvXK5Ymnc_PaSTjcSb-35">
          <mxGeometry relative="1" as="geometry" />
        </mxCell>
        <mxCell id="51nvXK5Ymnc_PaSTjcSb-29" value="Preencher &lt;br&gt;formulário &lt;br&gt;do local" style="ellipse;whiteSpace=wrap;html=1;rounded=0;fontFamily=Arial;" vertex="1" parent="1">
          <mxGeometry x="550" y="510" width="120" height="80" as="geometry" />
        </mxCell>
        <mxCell id="51nvXK5Ymnc_PaSTjcSb-35" value="Salvar ou cancelar" style="ellipse;whiteSpace=wrap;html=1;rounded=0;fontFamily=Arial;" vertex="1" parent="1">
          <mxGeometry x="740" y="510" width="120" height="80" as="geometry" />
        </mxCell>
        <mxCell id="51nvXK5Ymnc_PaSTjcSb-42" value="&amp;lt;&amp;lt;include&amp;gt;&amp;gt;" style="rounded=0;orthogonalLoop=1;jettySize=auto;html=1;endArrow=open;endFill=0;strokeWidth=2;" edge="1" parent="1" source="51nvXK5Ymnc_PaSTjcSb-38" target="51nvXK5Ymnc_PaSTjcSb-40">
          <mxGeometry relative="1" as="geometry" />
        </mxCell>
        <mxCell id="51nvXK5Ymnc_PaSTjcSb-38" value="Editar perfil" style="ellipse;whiteSpace=wrap;html=1;rounded=0;fontFamily=Arial;" vertex="1" parent="1">
          <mxGeometry x="350" y="610" width="120" height="80" as="geometry" />
        </mxCell>
        <mxCell id="51nvXK5Ymnc_PaSTjcSb-44" value="&amp;lt;&amp;lt;extends&amp;gt;&amp;gt;" style="rounded=0;orthogonalLoop=1;jettySize=auto;html=1;endArrow=open;endFill=0;strokeWidth=2;" edge="1" parent="1" source="51nvXK5Ymnc_PaSTjcSb-40" target="51nvXK5Ymnc_PaSTjcSb-43">
          <mxGeometry relative="1" as="geometry" />
        </mxCell>
        <mxCell id="51nvXK5Ymnc_PaSTjcSb-40" value="Preencher &lt;br&gt;dados a serem alterados" style="ellipse;whiteSpace=wrap;html=1;rounded=0;fontFamily=Arial;" vertex="1" parent="1">
          <mxGeometry x="550" y="610" width="120" height="80" as="geometry" />
        </mxCell>
        <mxCell id="51nvXK5Ymnc_PaSTjcSb-43" value="Salvar ou cancelar" style="ellipse;whiteSpace=wrap;html=1;rounded=0;fontFamily=Arial;" vertex="1" parent="1">
          <mxGeometry x="740" y="610" width="120" height="80" as="geometry" />
        </mxCell>
        <mxCell id="51nvXK5Ymnc_PaSTjcSb-45" value="Sair" style="ellipse;whiteSpace=wrap;html=1;rounded=0;fontFamily=Arial;" vertex="1" parent="1">
          <mxGeometry x="350" y="710" width="120" height="80" as="geometry" />
        </mxCell>
        <mxCell id="51nvXK5Ymnc_PaSTjcSb-50" style="rounded=0;orthogonalLoop=1;jettySize=auto;html=1;endArrow=open;endFill=0;strokeWidth=2;entryX=0;entryY=0.5;entryDx=0;entryDy=0;" edge="1" parent="1" source="51nvXK5Ymnc_PaSTjcSb-47" target="51nvXK5Ymnc_PaSTjcSb-49">
          <mxGeometry relative="1" as="geometry" />
        </mxCell>
        <mxCell id="51nvXK5Ymnc_PaSTjcSb-52" style="rounded=0;orthogonalLoop=1;jettySize=auto;html=1;entryX=0;entryY=0.5;entryDx=0;entryDy=0;endArrow=open;endFill=0;strokeWidth=2;" edge="1" parent="1" source="51nvXK5Ymnc_PaSTjcSb-47" target="51nvXK5Ymnc_PaSTjcSb-51">
          <mxGeometry relative="1" as="geometry" />
        </mxCell>
        <mxCell id="51nvXK5Ymnc_PaSTjcSb-54" style="rounded=0;orthogonalLoop=1;jettySize=auto;html=1;entryX=0;entryY=0.5;entryDx=0;entryDy=0;endArrow=open;endFill=0;strokeWidth=2;" edge="1" parent="1" source="51nvXK5Ymnc_PaSTjcSb-47" target="51nvXK5Ymnc_PaSTjcSb-53">
          <mxGeometry relative="1" as="geometry" />
        </mxCell>
        <mxCell id="51nvXK5Ymnc_PaSTjcSb-56" style="rounded=0;orthogonalLoop=1;jettySize=auto;html=1;endArrow=open;endFill=0;strokeWidth=2;" edge="1" parent="1" source="51nvXK5Ymnc_PaSTjcSb-47" target="51nvXK5Ymnc_PaSTjcSb-55">
          <mxGeometry relative="1" as="geometry" />
        </mxCell>
        <mxCell id="51nvXK5Ymnc_PaSTjcSb-47" value="Planejar rota" style="ellipse;whiteSpace=wrap;html=1;rounded=0;fontFamily=Arial;" vertex="1" parent="1">
          <mxGeometry x="350" y="810" width="120" height="80" as="geometry" />
        </mxCell>
        <mxCell id="51nvXK5Ymnc_PaSTjcSb-49" value="Visualizar histórico &lt;br&gt;de planejamentos" style="ellipse;whiteSpace=wrap;html=1;rounded=0;fontFamily=Arial;" vertex="1" parent="1">
          <mxGeometry x="550" y="910" width="120" height="80" as="geometry" />
        </mxCell>
        <mxCell id="51nvXK5Ymnc_PaSTjcSb-51" value="Avaliar ponto" style="ellipse;whiteSpace=wrap;html=1;rounded=0;fontFamily=Arial;" vertex="1" parent="1">
          <mxGeometry x="550" y="1010" width="120" height="80" as="geometry" />
        </mxCell>
        <mxCell id="51nvXK5Ymnc_PaSTjcSb-53" value="Visualizar &lt;br&gt;avaliações &lt;br&gt;realizadas" style="ellipse;whiteSpace=wrap;html=1;rounded=0;fontFamily=Arial;" vertex="1" parent="1">
          <mxGeometry x="550" y="1110" width="120" height="80" as="geometry" />
        </mxCell>
        <mxCell id="51nvXK5Ymnc_PaSTjcSb-60" value="&amp;lt;&amp;lt;include&amp;gt;&amp;gt;" style="rounded=0;orthogonalLoop=1;jettySize=auto;html=1;endArrow=open;endFill=0;strokeWidth=2;" edge="1" parent="1" source="51nvXK5Ymnc_PaSTjcSb-55" target="51nvXK5Ymnc_PaSTjcSb-57">
          <mxGeometry relative="1" as="geometry" />
        </mxCell>
        <mxCell id="51nvXK5Ymnc_PaSTjcSb-55" value="Inserir origem e destino" style="ellipse;whiteSpace=wrap;html=1;rounded=0;fontFamily=Arial;" vertex="1" parent="1">
          <mxGeometry x="550" y="810" width="120" height="80" as="geometry" />
        </mxCell>
        <mxCell id="51nvXK5Ymnc_PaSTjcSb-61" value="&amp;lt;&amp;lt;extends&amp;gt;&amp;gt;" style="rounded=0;orthogonalLoop=1;jettySize=auto;html=1;endArrow=open;endFill=0;strokeWidth=2;" edge="1" parent="1" source="51nvXK5Ymnc_PaSTjcSb-57" target="51nvXK5Ymnc_PaSTjcSb-58">
          <mxGeometry relative="1" as="geometry" />
        </mxCell>
        <mxCell id="51nvXK5Ymnc_PaSTjcSb-57" value="Selecionar veículo" style="ellipse;whiteSpace=wrap;html=1;rounded=0;fontFamily=Arial;" vertex="1" parent="1">
          <mxGeometry x="740" y="810" width="120" height="80" as="geometry" />
        </mxCell>
        <mxCell id="51nvXK5Ymnc_PaSTjcSb-62" value="&amp;lt;&amp;lt;extends&amp;gt;&amp;gt;" style="rounded=0;orthogonalLoop=1;jettySize=auto;html=1;endArrow=open;endFill=0;strokeWidth=2;" edge="1" parent="1" source="51nvXK5Ymnc_PaSTjcSb-58" target="51nvXK5Ymnc_PaSTjcSb-59">
          <mxGeometry relative="1" as="geometry" />
        </mxCell>
        <mxCell id="51nvXK5Ymnc_PaSTjcSb-58" value="Adicionar paradas" style="ellipse;whiteSpace=wrap;html=1;rounded=0;fontFamily=Arial;" vertex="1" parent="1">
          <mxGeometry x="990" y="810" width="120" height="80" as="geometry" />
        </mxCell>
        <mxCell id="51nvXK5Ymnc_PaSTjcSb-59" value="Aplicar filtros" style="ellipse;whiteSpace=wrap;html=1;rounded=0;fontFamily=Arial;" vertex="1" parent="1">
          <mxGeometry x="990" y="910" width="120" height="80" as="geometry" />
        </mxCell>
      </root>
    </mxGraphModel>
  </diagram>
</mxfile>
